# xmcd
#
# Track frame offsets:
#	183
#	12820
#	26433
#	41640
#	62945
#	76838
#	93083
#	107543
#	125970
#	151488
#	164750
#	173570
#	184825
#	200448
#
# Disc length: 2891 seconds
#
# Revision: 1
# Processed by: cddbd v1.5.2PL0 Copyright (c) Steve Scherf et al.
# Submitted via: audiograbber 1.83.01
#
DISCID=b10b490e
DTITLE=Tompall and The Glaser Brothers - The Country Store Collection
DYEAR=1988
DGENRE=Country
TTITLE0=Gentle On My Mind
TTITLE1=The Wild Side Of Life
TTITLE2=We Live In Two Different Worlds
TTITLE3=Faded Love
TTITLE4=When It Goes, It's Gone Girl
TTITLE5=The Hunger
TTITLE6=Good Hearted Woman
TTITLE7=Take The Singer With The Song
TTITLE8=Time Changes Everything
TTITLE9=If I'd Only Come And Gone
TTITLE10=Broken Down Momma
TTITLE11=Charlie
TTITLE12=I Can't Remember
TTITLE13=Lay Down Beside Me
EXTD=YEAR: 1988
EXTT0=
EXTT1=
EXTT2=
EXTT3=
EXTT4=
EXTT5=
EXTT6=
EXTT7=
EXTT8=
EXTT9=
EXTT10=
EXTT11=
EXTT12=
EXTT13=
PLAYORDER=
